<svg width="20" height="21" viewBox="0 0 20 21" fill="none" xmlns="http://www.w3.org/2000/svg">
<g clip-path="url(#clip0_16_379)">
<path d="M12.3092 14.27C11.9892 14.27 11.6692 14.1483 11.425 13.9041C10.9367 13.4166 10.9367 12.6241 11.425 12.1366L13.2742 10.2875C13.3525 10.2091 13.3525 10.0716 13.2742 9.99248L11.3525 8.07081C10.8642 7.58331 10.8642 6.79081 11.3525 6.30331C11.8408 5.81498 12.6317 5.81498 13.12 6.30331L15.0425 8.22581C16.0983 9.28248 16.0983 11 15.0425 12.0558L13.1933 13.905C12.9492 14.1491 12.6292 14.27 12.3092 14.27ZM20 15.52V10.3741C20 7.27998 18.6517 4.37331 16.3017 2.39998C14.0442 0.504978 11.1883 -0.252522 8.25666 0.259978C3.84499 1.03664 0.468328 4.70164 0.0466611 9.17331C-0.214172 11.9325 0.657494 14.5683 2.50166 16.5941C4.53083 18.8241 7.57749 20.1025 10.8617 20.1025H15.4167C17.9442 20.1025 20 18.0475 20 15.52ZM14.6942 4.31498C16.4775 5.81164 17.5 8.01998 17.5 10.3741V15.52C17.5 16.6683 16.565 17.6033 15.4167 17.6033H10.8617C8.27999 17.6033 5.90749 16.6225 4.35083 14.9125C2.98666 13.4133 2.34166 11.4583 2.53499 9.40914C2.84749 6.10748 5.43499 3.29581 8.68916 2.72331C9.13833 2.64414 9.58416 2.60498 10.025 2.60498C11.7342 2.60498 13.3575 3.19248 14.6942 4.31498ZM8.57499 13.9041C9.06333 13.4166 9.06333 12.6241 8.57499 12.1366L6.72666 10.2883C6.64833 10.2091 6.64833 10.0716 6.72666 9.99331L8.64916 8.07081C9.13749 7.58331 9.13749 6.79081 8.64916 6.30331C8.16083 5.81498 7.36999 5.81498 6.88166 6.30331L4.95916 8.22581C3.90416 9.28164 3.90416 10.9991 4.95916 12.055L6.80833 13.9041C7.05249 14.1483 7.37249 14.27 7.69249 14.27C8.01249 14.27 8.33249 14.1483 8.57666 13.9041H8.57499Z" fill="#FFFCF5"/>
</g>
<defs>
<clipPath id="clip0_16_379">
<rect width="20" height="20" fill="white" transform="translate(0 0.103271)"/>
</clipPath>
</defs>
</svg>
