<svg width="20" height="21" viewBox="0 0 20 21" fill="none" xmlns="http://www.w3.org/2000/svg">
<g clip-path="url(#clip0_16_387)">
<path d="M20 9.68664C19.998 9.1248 19.8691 8.57067 19.6229 8.06562C19.3767 7.56058 19.0197 7.11767 18.5783 6.76998C19.1889 6.28865 19.634 5.62875 19.8516 4.88234C20.0691 4.13592 20.0483 3.34021 19.7919 2.60621C19.5356 1.87221 19.0565 1.23653 18.4216 0.787848C17.7866 0.339165 17.0275 0.0998574 16.25 0.103308H3.74999C2.97253 0.0998574 2.21337 0.339165 1.57842 0.787848C0.943481 1.23653 0.46442 1.87221 0.208071 2.60621C-0.0482779 3.34021 -0.0691298 4.13592 0.148424 4.88234C0.365979 5.62875 0.811088 6.28865 1.42166 6.76998C0.978781 7.11629 0.620582 7.5589 0.374233 8.06426C0.127884 8.56962 -0.000146356 9.12444 -0.000146356 9.68664C-0.000146356 10.2488 0.127884 10.8037 0.374233 11.309C0.620582 11.8144 0.978781 12.257 1.42166 12.6033C0.811088 13.0846 0.365979 13.7445 0.148424 14.4909C-0.0691298 15.2374 -0.0482779 16.0331 0.208071 16.7671C0.46442 17.5011 0.943481 18.1368 1.57842 18.5854C2.21337 19.0341 2.97253 19.2734 3.74999 19.27H16.25C17.0275 19.2734 17.7866 19.0341 18.4216 18.5854C19.0565 18.1368 19.5356 17.5011 19.7919 16.7671C20.0483 16.0331 20.0691 15.2374 19.8516 14.4909C19.634 13.7445 19.1889 13.0846 18.5783 12.6033C19.0197 12.2556 19.3767 11.8127 19.6229 11.3077C19.8691 10.8026 19.998 10.2485 20 9.68664ZM1.66666 3.85331C1.66666 3.30077 1.88615 2.77087 2.27685 2.38017C2.66756 1.98947 3.19746 1.76997 3.74999 1.76997H4.16666V2.60331C4.16666 2.82432 4.25446 3.03628 4.41074 3.19256C4.56702 3.34884 4.77898 3.43664 4.99999 3.43664C5.22101 3.43664 5.43297 3.34884 5.58925 3.19256C5.74553 3.03628 5.83333 2.82432 5.83333 2.60331V1.76997H7.49999V2.60331C7.49999 2.82432 7.58779 3.03628 7.74407 3.19256C7.90035 3.34884 8.11231 3.43664 8.33333 3.43664C8.55434 3.43664 8.7663 3.34884 8.92258 3.19256C9.07886 3.03628 9.16666 2.82432 9.16666 2.60331V1.76997H16.25C16.8025 1.76997 17.3324 1.98947 17.7231 2.38017C18.1138 2.77087 18.3333 3.30077 18.3333 3.85331C18.3333 4.40584 18.1138 4.93575 17.7231 5.32645C17.3324 5.71715 16.8025 5.93664 16.25 5.93664H3.74999C3.19746 5.93664 2.66756 5.71715 2.27685 5.32645C1.88615 4.93575 1.66666 4.40584 1.66666 3.85331ZM18.3333 15.52C18.3333 16.0725 18.1138 16.6024 17.7231 16.9931C17.3324 17.3838 16.8025 17.6033 16.25 17.6033H3.74999C3.19746 17.6033 2.66756 17.3838 2.27685 16.9931C1.88615 16.6024 1.66666 16.0725 1.66666 15.52C1.66666 14.9674 1.88615 14.4375 2.27685 14.0468C2.66756 13.6561 3.19746 13.4366 3.74999 13.4366H4.16666V14.27C4.16666 14.491 4.25446 14.703 4.41074 14.8592C4.56702 15.0155 4.77898 15.1033 4.99999 15.1033C5.22101 15.1033 5.43297 15.0155 5.58925 14.8592C5.74553 14.703 5.83333 14.491 5.83333 14.27V13.4366H7.49999V14.27C7.49999 14.491 7.58779 14.703 7.74407 14.8592C7.90035 15.0155 8.11231 15.1033 8.33333 15.1033C8.55434 15.1033 8.7663 15.0155 8.92258 14.8592C9.07886 14.703 9.16666 14.491 9.16666 14.27V13.4366H16.25C16.8025 13.4366 17.3324 13.6561 17.7231 14.0468C18.1138 14.4375 18.3333 14.9674 18.3333 15.52ZM3.74999 11.77C3.19746 11.77 2.66756 11.5505 2.27685 11.1598C1.88615 10.7691 1.66666 10.2392 1.66666 9.68664C1.66666 9.13411 1.88615 8.6042 2.27685 8.2135C2.66756 7.8228 3.19746 7.60331 3.74999 7.60331H4.16666V8.43664C4.16666 8.65766 4.25446 8.86962 4.41074 9.0259C4.56702 9.18218 4.77898 9.26998 4.99999 9.26998C5.22101 9.26998 5.43297 9.18218 5.58925 9.0259C5.74553 8.86962 5.83333 8.65766 5.83333 8.43664V7.60331H7.49999V8.43664C7.49999 8.65766 7.58779 8.86962 7.74407 9.0259C7.90035 9.18218 8.11231 9.26998 8.33333 9.26998C8.55434 9.26998 8.7663 9.18218 8.92258 9.0259C9.07886 8.86962 9.16666 8.65766 9.16666 8.43664V7.60331H16.25C16.8025 7.60331 17.3324 7.8228 17.7231 8.2135C18.1138 8.6042 18.3333 9.13411 18.3333 9.68664C18.3333 10.2392 18.1138 10.7691 17.7231 11.1598C17.3324 11.5505 16.8025 11.77 16.25 11.77H3.74999Z" fill="#FFFCF5"/>
</g>
<defs>
<clipPath id="clip0_16_387">
<rect width="20" height="20" fill="white" transform="translate(0 0.103271)"/>
</clipPath>
</defs>
</svg>
