<svg width="24" height="25" viewBox="0 0 24 25" fill="none" xmlns="http://www.w3.org/2000/svg">
<path d="M18.061 12.4573C17.9217 12.3179 17.7563 12.2073 17.5743 12.1319C17.3922 12.0564 17.1971 12.0176 17 12.0176C16.8029 12.0176 16.6078 12.0564 16.4258 12.1319C16.2437 12.2073 16.0783 12.3179 15.939 12.4573L13.5 14.8963V6.10327C13.5 5.70545 13.342 5.32392 13.0607 5.04261C12.7794 4.76131 12.3978 4.60327 12 4.60327C11.6022 4.60327 11.2206 4.76131 10.9393 5.04261C10.658 5.32392 10.5 5.70545 10.5 6.10327V14.8963L8.061 12.4573C7.77974 12.1759 7.39821 12.0177 7.00035 12.0176C6.6025 12.0176 6.2209 12.1755 5.9395 12.4568C5.65811 12.738 5.49997 13.1196 5.49987 13.5174C5.49978 13.9153 5.65774 14.2969 5.939 14.5783L9.525 18.1643C9.85001 18.4893 10.2359 18.7472 10.6605 18.9231C11.0852 19.099 11.5403 19.1895 12 19.1895C12.4597 19.1895 12.9148 19.099 13.3395 18.9231C13.7641 18.7472 14.15 18.4893 14.475 18.1643L18.061 14.5783C18.3422 14.297 18.5002 13.9155 18.5002 13.5178C18.5002 13.12 18.3422 12.7386 18.061 12.4573Z" fill="#FFFCF5"/>
</svg>
