<svg width="20" height="21" viewBox="0 0 20 21" fill="none" xmlns="http://www.w3.org/2000/svg">
<g clip-path="url(#clip0_21_448)">
<path fill-rule="evenodd" clip-rule="evenodd" d="M10 0.349976C4.4775 0.349976 0 4.82664 0 10.35C0 14.7683 2.865 18.5166 6.83833 19.8391C7.33833 19.9316 7.52167 19.6225 7.52167 19.3583C7.52167 19.12 7.5125 18.3325 7.50833 17.4966C4.72667 18.1016 4.13917 16.3166 4.13917 16.3166C3.68417 15.1608 3.02917 14.8533 3.02917 14.8533C2.12167 14.2325 3.0975 14.2458 3.0975 14.2458C4.10167 14.3166 4.63 15.2766 4.63 15.2766C5.52167 16.805 6.96917 16.3633 7.54 16.1075C7.63 15.4608 7.88917 15.02 8.175 14.77C5.95417 14.5175 3.61917 13.66 3.61917 9.82831C3.61917 8.73664 4.01 7.84414 4.65 7.14414C4.54583 6.89164 4.20333 5.87498 4.74667 4.49748C4.74667 4.49748 5.58667 4.22914 7.4975 5.52248C8.295 5.30081 9.15 5.18998 10 5.18581C10.85 5.18998 11.7058 5.30081 12.505 5.52248C14.4133 4.22831 15.2525 4.49748 15.2525 4.49748C15.7967 5.87498 15.4542 6.89164 15.3508 7.14414C15.9917 7.84414 16.38 8.73664 16.38 9.82831C16.38 13.6691 14.0408 14.515 11.8142 14.7625C12.1725 15.0725 12.4925 15.6816 12.4925 16.6141C12.4925 17.9525 12.4808 19.0291 12.4808 19.3583C12.4808 19.6241 12.6608 19.9366 13.1675 19.8383C17.1392 18.5141 20.0008 14.7675 20.0008 10.3508C20 4.82748 15.5225 0.349976 10 0.349976Z" fill="#D8D9DA" fill-opacity="0.4"/>
<path d="M3.7875 14.7083C3.76583 14.7583 3.6875 14.7733 3.61583 14.7392C3.54333 14.7067 3.5025 14.6383 3.52583 14.5892C3.5475 14.5383 3.62583 14.5242 3.69833 14.5583C3.77083 14.59 3.8125 14.6583 3.7875 14.7083Z" fill="#D8D9DA" fill-opacity="0.4"/>
<path d="M4.1925 15.1599C4.145 15.2041 4.05167 15.1833 3.98833 15.1141C3.9225 15.0441 3.91083 14.9508 3.95917 14.9066C4.00833 14.8624 4.09833 14.8833 4.16417 14.9533C4.23 15.0224 4.2425 15.1149 4.1925 15.1599Z" fill="#D8D9DA" fill-opacity="0.4"/>
<path d="M4.58667 15.7358C4.525 15.7783 4.425 15.7383 4.36334 15.65C4.30167 15.5608 4.30167 15.4542 4.365 15.4117C4.42667 15.3692 4.52584 15.4075 4.58834 15.4958C4.64917 15.5858 4.64917 15.6925 4.58667 15.7358Z" fill="#D8D9DA" fill-opacity="0.4"/>
<path d="M5.12667 16.2925C5.07167 16.3533 4.955 16.3367 4.87 16.2542C4.7825 16.1733 4.75833 16.0592 4.81333 15.9983C4.86917 15.9375 4.98667 15.955 5.0725 16.0367C5.15917 16.1175 5.185 16.2325 5.12667 16.2925Z" fill="#D8D9DA" fill-opacity="0.4"/>
<path d="M5.8725 16.615C5.84833 16.6934 5.73583 16.7292 5.6225 16.6959C5.50917 16.6617 5.435 16.57 5.45833 16.4909C5.48167 16.4117 5.595 16.375 5.70917 16.4109C5.82167 16.4442 5.89583 16.5359 5.8725 16.615Z" fill="#D8D9DA" fill-opacity="0.4"/>
<path d="M6.69083 16.675C6.69333 16.7575 6.5975 16.8258 6.47833 16.8275C6.35917 16.83 6.26167 16.7633 6.26083 16.6825C6.26083 16.5991 6.355 16.5316 6.47417 16.5291C6.59333 16.5266 6.69083 16.5933 6.69083 16.675Z" fill="#D8D9DA" fill-opacity="0.4"/>
<path d="M7.4525 16.5459C7.46667 16.6259 7.38417 16.7092 7.26583 16.7309C7.15 16.7525 7.0425 16.7025 7.0275 16.6225C7.01333 16.54 7.0975 16.4575 7.21333 16.4359C7.33083 16.415 7.4375 16.4634 7.4525 16.5459Z" fill="#D8D9DA" fill-opacity="0.4"/>
</g>
<defs>
<clipPath id="clip0_21_448">
<rect width="20" height="20" fill="white" transform="translate(0 0.103271)"/>
</clipPath>
</defs>
</svg>
