<svg width="16" height="17" viewBox="0 0 16 17" fill="none" xmlns="http://www.w3.org/2000/svg">
<g clip-path="url(#clip0_10_254)">
<path d="M16 5.75661V13.4366C16 13.6134 15.9298 13.783 15.8047 13.908C15.6797 14.033 15.5101 14.1033 15.3333 14.1033C15.1565 14.1033 14.987 14.033 14.8619 13.908C14.7369 13.783 14.6667 13.6134 14.6667 13.4366V7.93794L9.73333 10.2953C9.21316 10.6023 8.61934 10.7622 8.01533 10.7579C7.3819 10.7589 6.75998 10.5887 6.21533 10.2653L1.29533 7.92327C0.908588 7.71531 0.58454 7.40763 0.356814 7.03218C0.129088 6.65673 0.00598132 6.22718 0.000267505 5.7881C-0.00544631 5.34902 0.106441 4.91641 0.32432 4.53516C0.542199 4.15391 0.85813 3.8379 1.23933 3.61994C1.25733 3.60927 1.27667 3.59927 1.29533 3.58994L6.26667 1.21794C6.80338 0.909716 7.41251 0.750027 8.0314 0.755299C8.6503 0.760572 9.25662 0.930616 9.788 1.24794L14.7047 3.58994C15.0926 3.8046 15.4168 4.11814 15.6444 4.49869C15.8719 4.87925 15.9946 5.31326 16 5.75661ZM8.01467 12.0899C7.16172 12.0918 6.32342 11.8683 5.58467 11.4419L2.66667 10.0493V11.8493C2.66706 12.561 2.89491 13.2539 3.31695 13.8269C3.73899 14.4 4.33314 14.8231 5.01267 15.0346C5.98356 15.3134 6.98996 15.4488 8 15.4366C9.01017 15.4479 10.0166 15.3116 10.9873 15.0319C11.6669 14.8204 12.261 14.3973 12.683 13.8243C13.1051 13.2512 13.3329 12.5583 13.3333 11.8466V10.0526L10.3607 11.4726C9.6471 11.8826 8.8376 12.096 8.01467 12.0913V12.0899Z" fill="#D8D9DA"/>
</g>
<defs>
<clipPath id="clip0_10_254">
<rect width="16" height="16" fill="white" transform="translate(0 0.103271)"/>
</clipPath>
</defs>
</svg>
