<svg width="20" height="21" viewBox="0 0 20 21" fill="none" xmlns="http://www.w3.org/2000/svg">
<g clip-path="url(#clip0_16_381)">
<path d="M18.7375 9.24913L10 14.4925L1.2625 9.24913C1.07299 9.13542 0.846057 9.10165 0.63164 9.15525C0.417223 9.20886 0.232883 9.34544 0.119171 9.53496C0.00545981 9.72448 -0.0283082 9.95141 0.025296 10.1658C0.0789001 10.3802 0.215485 10.5646 0.405005 10.6783L9.57167 16.1783C9.70128 16.2562 9.84964 16.2973 10.0008 16.2973C10.152 16.2973 10.3004 16.2562 10.43 16.1783L19.5967 10.6783C19.7862 10.5646 19.9228 10.3802 19.9764 10.1658C20.03 9.95141 19.9962 9.72448 19.8825 9.53496C19.7688 9.34544 19.5845 9.20886 19.37 9.15525C19.1556 9.10165 18.9287 9.13542 18.7392 9.24913H18.7375Z" fill="#FFFCF5"/>
<path d="M18.7375 13.0558L10 18.2983L1.2625 13.0558C1.16866 12.9995 1.06465 12.9622 0.956406 12.9461C0.848162 12.93 0.737806 12.9354 0.631638 12.9619C0.525469 12.9884 0.425568 13.0356 0.337639 13.1008C0.249709 13.1659 0.175473 13.2478 0.119169 13.3416C0.0628646 13.4354 0.025595 13.5395 0.00948778 13.6477C-0.00661939 13.7559 -0.00124862 13.8663 0.0252935 13.9725C0.0788976 14.1869 0.215483 14.3712 0.405002 14.4849L9.57167 19.9849C9.70128 20.0628 9.84963 20.1039 10.0008 20.1039C10.152 20.1039 10.3004 20.0628 10.43 19.9849L19.5967 14.4849C19.7862 14.3712 19.9228 14.1869 19.9764 13.9725C20.03 13.7581 19.9962 13.5311 19.8825 13.3416C19.7688 13.1521 19.5845 13.0155 19.37 12.9619C19.1556 12.9083 18.9287 12.9421 18.7392 13.0558H18.7375Z" fill="#FFFCF5"/>
<path d="M10 12.4141C9.55048 12.4139 9.10948 12.2914 8.72416 12.0599L0.404162 7.06744C0.280952 6.99336 0.179005 6.88865 0.10823 6.76351C0.0374546 6.63837 0.000259399 6.49705 0.000259399 6.35328C0.000259399 6.20951 0.0374546 6.06818 0.10823 5.94304C0.179005 5.8179 0.280952 5.7132 0.404162 5.63911L8.72416 0.64661C9.10947 0.415135 9.5505 0.292847 10 0.292847C10.4495 0.292847 10.8905 0.415135 11.2758 0.64661L19.5958 5.63911C19.719 5.7132 19.821 5.8179 19.8918 5.94304C19.9625 6.06818 19.9997 6.20951 19.9997 6.35328C19.9997 6.49705 19.9625 6.63837 19.8918 6.76351C19.821 6.88865 19.719 6.99336 19.5958 7.06744L11.2758 12.0599C10.8905 12.2914 10.4495 12.4139 10 12.4141ZM2.45333 6.35328L9.58333 10.6308C9.70926 10.7061 9.85326 10.7459 10 10.7459C10.1467 10.7459 10.2907 10.7061 10.4167 10.6308L17.5467 6.35328L10.4167 2.07578C10.2907 2.00045 10.1467 1.96067 10 1.96067C9.85326 1.96067 9.70926 2.00045 9.58333 2.07578L2.45333 6.35328Z" fill="#FFFCF5"/>
</g>
<defs>
<clipPath id="clip0_16_381">
<rect width="20" height="20" fill="white" transform="translate(0 0.103271)"/>
</clipPath>
</defs>
</svg>
