<svg width="20" height="21" viewBox="0 0 20 21" fill="none" xmlns="http://www.w3.org/2000/svg">
<g clip-path="url(#clip0_21_458)">
<path d="M19.1683 18.0899H19.3575L18.995 17.5415C19.2167 17.5415 19.3342 17.4007 19.3358 17.2282C19.3358 17.2215 19.3358 17.214 19.335 17.2074C19.335 16.9724 19.1933 16.8599 18.9025 16.8599H18.4325V18.0899H18.6092V17.554H18.8267L19.1683 18.0899ZM18.8142 17.4149H18.6092V16.999H18.8692C19.0033 16.999 19.1567 17.0207 19.1567 17.1965C19.1567 17.3982 19.0025 17.4149 18.8142 17.4149Z" fill="#D8D9DA" fill-opacity="0.4"/>
<path d="M14.4092 15.9974H11.9033V12.0732C11.9033 11.1374 11.8867 9.93325 10.6 9.93325C9.295 9.93325 9.095 10.9524 9.095 12.0057V15.9974H6.59V7.92742H8.99583V9.02992H9.02917C9.52 8.19158 10.4317 7.69075 11.4025 7.72658C13.9425 7.72658 14.41 9.39742 14.41 11.5699L14.4092 15.9974ZM3.7625 6.82408C2.95917 6.82408 2.30833 6.17325 2.30833 5.36992C2.30833 4.56658 2.95917 3.91575 3.7625 3.91575C4.56583 3.91575 5.21667 4.56658 5.21667 5.36992C5.21667 6.17325 4.56583 6.82408 3.7625 6.82408ZM5.015 15.9974H2.50667V7.92742H5.015V15.9974ZM15.6583 1.58908H1.2475C0.566667 1.58158 0.00833333 2.12742 0 2.80825V17.2782C0.00833333 17.9599 0.566667 18.5057 1.2475 18.4982H15.6583C16.3408 18.5066 16.9017 17.9607 16.9108 17.2782V2.80742C16.9008 2.12492 16.34 1.57908 15.6583 1.58825" fill="#D8D9DA" fill-opacity="0.4"/>
<path d="M18.8358 16.3124C18.1992 16.3182 17.6875 16.8399 17.6942 17.4765C17.7 18.1132 18.2217 18.6249 18.8583 18.6182C19.495 18.6124 20.0067 18.0907 20 17.454C19.9942 16.8257 19.4858 16.3182 18.8583 16.3124H18.8358ZM18.8625 18.4857C18.3042 18.4949 17.8175 18.0507 17.8083 17.4924C17.7992 16.934 18.2442 16.474 18.8025 16.4649C19.3608 16.4557 19.8208 16.9007 19.83 17.459C19.83 17.4649 19.83 17.4699 19.83 17.4757C19.8417 18.0215 19.4083 18.474 18.8625 18.4857H18.8367Z" fill="#D8D9DA" fill-opacity="0.4"/>
</g>
<defs>
<clipPath id="clip0_21_458">
<rect width="20" height="20" fill="white" transform="translate(0 0.103271)"/>
</clipPath>
</defs>
</svg>
