<svg width="20" height="21" viewBox="0 0 20 21" fill="none" xmlns="http://www.w3.org/2000/svg">
<path d="M18.75 9.25H1.25C0.559648 9.25 0 9.80965 0 10.5C0 11.1904 0.559648 11.75 1.25 11.75H18.75C19.4404 11.75 20 11.1904 20 10.5C20 9.80965 19.4404 9.25 18.75 9.25Z" fill="#FFFCF5"/>
<path d="M1.25 5.91669H18.75C19.4404 5.91669 20 5.35704 20 4.66669C20 3.97634 19.4404 3.41669 18.75 3.41669H1.25C0.559648 3.41669 0 3.97634 0 4.66669C0 5.35704 0.559648 5.91669 1.25 5.91669Z" fill="#FFFCF5"/>
<path d="M18.75 15.0833H1.25C0.559648 15.0833 0 15.643 0 16.3333C0 17.0237 0.559648 17.5833 1.25 17.5833H18.75C19.4404 17.5833 20 17.0237 20 16.3333C20 15.643 19.4404 15.0833 18.75 15.0833Z" fill="#FFFCF5"/>
</svg>
