<svg width="20" height="21" viewBox="0 0 20 21" fill="none" xmlns="http://www.w3.org/2000/svg">
<g clip-path="url(#clip0_16_385)">
<path d="M15.8333 3.4366H14.9158C14.5283 1.53744 12.845 0.103271 10.8333 0.103271H9.16667C7.155 0.103271 5.47083 1.53744 5.08417 3.4366H4.16667C1.86917 3.4366 0 5.30577 0 7.60327V15.9366C0 18.2341 1.86917 20.1033 4.16667 20.1033H15.8333C18.1308 20.1033 20 18.2341 20 15.9366V7.60327C20 5.30577 18.1308 3.4366 15.8333 3.4366ZM9.16667 1.76994H10.8333C11.92 1.76994 12.8458 2.4666 13.19 3.4366H6.81C7.15417 2.4666 8.08 1.76994 9.16667 1.76994ZM4.16667 5.10327H15.8333C17.2117 5.10327 18.3333 6.22494 18.3333 7.60327V8.4366H15.8333V7.60327C15.8333 7.14327 15.4608 6.76994 15 6.76994C14.5392 6.76994 14.1667 7.14327 14.1667 7.60327V8.4366H5.83333V7.60327C5.83333 7.14327 5.46083 6.76994 5 6.76994C4.53917 6.76994 4.16667 7.14327 4.16667 7.60327V8.4366H1.66667V7.60327C1.66667 6.22494 2.78833 5.10327 4.16667 5.10327ZM15.8333 18.4366H4.16667C2.78833 18.4366 1.66667 17.3149 1.66667 15.9366V10.1033H4.16667V10.9366C4.16667 11.3966 4.53917 11.7699 5 11.7699C5.46083 11.7699 5.83333 11.3966 5.83333 10.9366V10.1033H14.1667V10.9366C14.1667 11.3966 14.5392 11.7699 15 11.7699C15.4608 11.7699 15.8333 11.3966 15.8333 10.9366V10.1033H18.3333V15.9366C18.3333 17.3149 17.2117 18.4366 15.8333 18.4366Z" fill="#FFFCF5"/>
</g>
<defs>
<clipPath id="clip0_16_385">
<rect width="20" height="20" fill="white" transform="translate(0 0.103271)"/>
</clipPath>
</defs>
</svg>
