<svg width="20" height="21" viewBox="0 0 20 21" fill="none" xmlns="http://www.w3.org/2000/svg">
<g clip-path="url(#clip0_21_444)">
<path fill-rule="evenodd" clip-rule="evenodd" d="M17.0525 3.00994C15.1808 1.1366 12.6925 0.104105 10.0417 0.103271C4.57917 0.103271 0.133334 4.54827 0.130834 10.0133C0.130001 11.7599 0.586667 13.4649 1.45417 14.9683L0.0475006 20.1033L5.30083 18.7249C6.74833 19.5149 8.37833 19.9308 10.0367 19.9316H10.0408C15.5025 19.9316 19.9492 15.4858 19.9517 10.0208C19.9533 7.37327 18.9233 4.88244 17.0525 3.00994ZM10.0417 18.2574H10.0383C8.56 18.2574 7.11083 17.8599 5.84583 17.1091L5.545 16.9308L2.4275 17.7483L3.26 14.7083L3.06417 14.3966C2.23917 13.0849 1.80417 11.5691 1.805 10.0133C1.80667 5.47161 5.5025 1.7766 10.0458 1.7766C12.2458 1.7766 14.3142 2.63494 15.8692 4.1916C17.4242 5.7491 18.28 7.81827 18.2792 10.0191C18.2767 14.5624 14.5817 18.2574 10.0417 18.2574ZM14.56 12.0883C14.3125 11.9641 13.095 11.3649 12.8675 11.2824C12.6408 11.1999 12.4758 11.1583 12.31 11.4058C12.1442 11.6533 11.6708 12.2116 11.5258 12.3774C11.3817 12.5424 11.2367 12.5633 10.9892 12.4391C10.7417 12.3149 9.94333 12.0541 8.9975 11.2099C8.26167 10.5533 7.76417 9.74244 7.62 9.4941C7.47583 9.24577 7.605 9.11244 7.72833 8.9891C7.84 8.87827 7.97583 8.69994 8.1 8.55494C8.225 8.4116 8.26583 8.30827 8.34917 8.14244C8.43167 7.97744 8.39083 7.83244 8.32833 7.70827C8.26583 7.58494 7.77083 6.36577 7.565 5.86994C7.36417 5.3866 7.16 5.45244 7.0075 5.44494C6.86333 5.43744 6.69833 5.4366 6.5325 5.4366C6.3675 5.4366 6.09917 5.49827 5.8725 5.7466C5.64583 5.99494 5.00583 6.5941 5.00583 7.81244C5.00583 9.0316 5.89333 10.2091 6.01667 10.3741C6.14 10.5391 7.7625 13.0408 10.2467 14.1133C10.8375 14.3683 11.2992 14.5208 11.6583 14.6349C12.2517 14.8233 12.7917 14.7966 13.2183 14.7333C13.6942 14.6624 14.6833 14.1341 14.89 13.5558C15.0967 12.9774 15.0967 12.4808 15.0342 12.3783C14.9725 12.2741 14.8075 12.2124 14.56 12.0883Z" fill="#D8D9DA" fill-opacity="0.4"/>
</g>
<defs>
<clipPath id="clip0_21_444">
<rect width="20" height="20" fill="white" transform="translate(0 0.103271)"/>
</clipPath>
</defs>
</svg>
