<svg width="75" height="75" viewBox="0 0 75 75" fill="none" xmlns="http://www.w3.org/2000/svg">
<g clip-path="url(#clip0_8_207)">
<path d="M17.3937 44.6125C17.3937 42.5375 25.2719 41.3719 28.9375 41.0875L29.2875 41.2907C27.8781 41.5469 22.225 42.5438 22.225 43.8438C22.225 45.2594 30.8969 46.1875 35.9281 46.1875C44.475 46.1875 50.2875 44.8938 51.85 44.4688L54.0375 45.7407C52.5406 46.475 46.1125 48.3938 35.9281 48.3938C24.6125 48.3938 17.3937 46.1813 17.3937 44.6125ZM34.6406 73.7625C30.1625 73.8 24.6937 73.4313 20.0937 72.6594L19.6656 72.9032C24.25 74.2469 30.6312 75.0594 37.6406 74.9969C51.4094 74.8782 62.5719 71.4625 62.7906 67.3531L62.6312 67.2594C61.7094 68.3875 55.7562 73.5782 34.6406 73.7625ZM35.8125 71.1157C47.0812 71.0156 59.6906 68.8125 59.6562 65.1063C59.65 64.4344 59.2125 63.9719 58.8312 63.6969L58.6469 63.8032C57.6062 66.675 48.8031 68.7969 35.7937 68.9094C27.4 68.9844 15.775 66.9719 15.7531 64.65C15.7344 62.3188 21.2625 61.0407 21.2625 61.0407L20.8719 60.8125C17.1687 61.3219 10.3406 63.0969 10.3625 65.6594C10.3937 69.3625 26.0812 71.2 35.8125 71.1157ZM61.2 45.6032C60.9719 49.95 56.9562 52.6594 52.9406 54.9438L53.3031 55.1532C57.5875 53.9469 65.2312 50.4375 64.6 45.0438C64.2844 42.3563 61.825 40.4313 58.6219 40.4313C57.6219 40.4313 56.7344 40.6063 56.0156 40.825L56.0125 40.8313L55.8594 41.2125C58.7281 40.6594 61.3469 42.7532 61.2 45.6032ZM28.0969 58.5219C26.7906 58.7813 23.9406 59.4375 23.9406 60.8219C23.9406 62.7406 30.0375 64.2125 35.925 64.2125C44.025 64.2125 47.3437 62.1282 47.4937 62.0188L44.125 60.0688C42.6937 60.4094 40.2781 60.9438 35.9344 60.9438C31.0844 60.9438 27.925 60.1156 27.925 59.2063C27.925 59.0125 28.0469 58.7844 28.2687 58.6157L28.0969 58.5219ZM47.9969 52.05C46.1344 52.5782 41.9375 53.4375 35.9375 53.4375C30.05 53.4375 25.2375 52.4313 25.2219 51.2438C25.2094 50.4532 26.1656 50.1094 26.1656 50.1094L25.9969 50.0125C23.175 50.5094 20.5562 51.2813 20.5719 52.4344C20.5969 54.5281 28.6031 56.0969 35.925 56.0969C42.15 56.0969 48.1281 55.0532 50.825 53.6844L47.9969 52.05Z" fill="#FFFCF5"/>
<path d="M46.3906 5.36563C46.3906 16.9063 30.5781 21.3219 30.5781 29.525C30.5781 35.2844 34.3968 38.8969 36.5125 41.1813L36.3406 41.2813C33.6718 39.6125 26.6531 35.4188 26.6531 28.4906C26.6531 18.7656 44.8187 14.1188 44.8187 3.07188C44.8187 1.7125 44.6187 0.66875 44.475 0.109375L44.6562 0C45.2312 0.721875 46.3906 2.53125 46.3906 5.36563ZM51.5906 15.5844L51.4 15.475C47.9593 16.6281 37.3656 20.8094 37.3656 28.6063C37.3656 33.0156 41.6718 35.4594 41.6718 39.5938C41.6718 41.0688 40.8375 42.4531 40.1625 43.2781L40.5031 43.475C42.2968 42.3094 45.4687 39.7875 45.4687 36.5312C45.4687 33.7719 41.6531 30.4594 41.6531 26.9125C41.65 21.3281 49.0156 16.9469 51.5906 15.5844Z" fill="#FFFCF5"/>
</g>
<defs>
<clipPath id="clip0_8_207">
<rect width="75" height="75" fill="white"/>
</clipPath>
</defs>
</svg>
