<svg width="75" height="75" viewBox="0 0 75 75" fill="none" xmlns="http://www.w3.org/2000/svg">
<g clip-path="url(#clip0_8_211)">
<path d="M37.0593 -8.14223e-06C34 0.0156169 31.0781 0.274992 28.5093 0.731242C20.9375 2.06874 19.5625 4.86874 19.5625 10.0312V16.85H37.4562V19.125H19.5625H12.8468C7.64685 19.125 3.09372 22.25 1.66872 28.1969C0.0249732 35.0125 -0.0469018 39.2656 1.66872 46.3812C2.9406 51.6781 5.9781 55.4531 11.1781 55.4531H17.3312V47.2781C17.3312 41.3719 22.4406 36.1625 28.5093 36.1625H46.3812C51.3562 36.1625 55.3281 32.0656 55.3281 27.0687V10.0312C55.3281 5.18124 51.2375 1.54062 46.3812 0.731242C43.3062 0.218742 40.1156 -0.0125081 37.0593 -8.14223e-06ZM27.3812 5.48437C29.2281 5.48437 30.7375 7.01874 30.7375 8.90312C30.7375 10.7812 29.2281 12.3031 27.3812 12.3031C25.525 12.3031 24.025 10.7844 24.025 8.90312C24.025 7.01874 25.5281 5.48437 27.3812 5.48437Z" fill="#FFFCF5"/>
<path d="M57.5562 19.125V27.0719C57.5562 33.2313 52.3344 38.4156 46.3781 38.4156H28.5094C23.6125 38.4156 19.5625 42.6063 19.5625 47.5094V64.5469C19.5625 69.3969 23.7781 72.2469 28.5094 73.6406C34.1719 75.3063 39.6031 75.6063 46.3812 73.6406C50.8844 72.3375 55.3281 69.7125 55.3281 64.5469V57.7281H37.4562V55.4563H55.3281H64.275C69.475 55.4563 71.4125 51.8281 73.2219 46.3844C75.0906 40.7781 75.0094 35.3906 73.2219 28.2C71.9375 23.0219 69.4813 19.1281 64.275 19.1281L57.5562 19.125ZM47.5062 62.2719C49.3625 62.2719 50.8625 63.7906 50.8625 65.6719C50.8625 67.5594 49.3594 69.0906 47.5062 69.0906C45.6594 69.0906 44.15 67.5563 44.15 65.6719C44.15 63.7906 45.6594 62.2719 47.5062 62.2719Z" fill="#FFFCF5"/>
</g>
<defs>
<clipPath id="clip0_8_211">
<rect width="75" height="75" fill="white"/>
</clipPath>
</defs>
</svg>
