<svg width="20" height="20" viewBox="0 0 20 20" fill="none" xmlns="http://www.w3.org/2000/svg">
<g clip-path="url(#clip0_71_185)">
<path d="M9.88248 -1.66264e-06C9.06665 0.004165 8.28748 0.0733317 7.60248 0.194998C5.58332 0.551665 5.21665 1.29833 5.21665 2.675V4.49333H9.98832V5.1H5.21665H3.42582C2.03915 5.1 0.824985 5.93333 0.444985 7.51917C0.0066514 9.33667 -0.0125153 10.4708 0.444985 12.3683C0.784151 13.7808 1.59415 14.7875 2.98082 14.7875H4.62165V12.6075C4.62165 11.0325 5.98415 9.64333 7.60248 9.64333H12.3683C13.695 9.64333 14.7542 8.55083 14.7542 7.21833V2.675C14.7542 1.38166 13.6633 0.410832 12.3683 0.194998C11.5483 0.0583317 10.6975 -0.003335 9.88248 -1.66264e-06ZM7.30165 1.4625C7.79415 1.4625 8.19665 1.87167 8.19665 2.37417C8.19665 2.875 7.79415 3.28083 7.30165 3.28083C6.80665 3.28083 6.40665 2.87583 6.40665 2.37417C6.40665 1.87167 6.80748 1.4625 7.30165 1.4625Z" fill="#61677A"/>
<path d="M15.3483 5.1V7.21917C15.3483 8.86167 13.9558 10.2442 12.3675 10.2442H7.60248C6.29664 10.2442 5.21664 11.3617 5.21664 12.6692V17.2125C5.21664 18.5058 6.34081 19.2658 7.60248 19.6375C9.11248 20.0817 10.5608 20.1617 12.3683 19.6375C13.5691 19.29 14.7541 18.59 14.7541 17.2125V15.3942H9.98831V14.7883H14.7541H17.14C18.5266 14.7883 19.0433 13.8208 19.5258 12.3692C20.0241 10.8742 20.0025 9.4375 19.5258 7.52C19.1833 6.13917 18.5283 5.10083 17.14 5.10083L15.3483 5.1ZM12.6683 16.6058C13.1633 16.6058 13.5633 17.0108 13.5633 17.5125C13.5633 18.0158 13.1625 18.4242 12.6683 18.4242C12.1758 18.4242 11.7733 18.015 11.7733 17.5125C11.7733 17.0108 12.1758 16.6058 12.6683 16.6058Z" fill="#61677A"/>
</g>
<defs>
<clipPath id="clip0_71_185">
<rect width="20" height="20" fill="white"/>
</clipPath>
</defs>
</svg>
