<svg width="20" height="20" viewBox="0 0 20 20" fill="none" xmlns="http://www.w3.org/2000/svg">
<g clip-path="url(#clip0_59_65)">
<path d="M9.99958 8.33303C9.08045 8.33303 8.33299 9.0805 8.33299 9.99963C8.33299 10.9188 9.08045 11.6662 9.99958 11.6662C10.9187 11.6662 11.6662 10.9188 11.6662 9.99963C11.6662 9.0805 10.9187 8.33303 9.99958 8.33303ZM9.99958 10.8329C9.54044 10.8329 9.16628 10.4588 9.16628 9.99963C9.16628 9.54048 9.54044 9.16633 9.99958 9.16633C10.4587 9.16633 10.8329 9.54048 10.8329 9.99963C10.8329 10.4588 10.4587 10.8329 9.99958 10.8329ZM19.9992 9.99963C19.9992 8.57468 18.6484 7.3214 16.4893 6.48727C16.9368 4.01237 16.5343 2.02662 15.2144 1.21082C14.5794 0.818341 13.8078 0.729178 12.9186 0.949169C12.0012 1.17499 11.0004 1.73247 10.0004 2.5441C8.99963 1.7333 7.99883 1.17499 7.0822 0.949169C6.19224 0.729178 5.42061 0.818341 4.78647 1.21082C3.46569 2.02662 3.06321 4.01237 3.51152 6.48727C1.35078 7.3214 0 8.57468 0 9.99963C0 11.4246 1.35078 12.6778 3.50985 13.512C3.06237 15.9869 3.46486 17.9726 4.78563 18.7884C5.19395 19.0401 5.65893 19.1667 6.17474 19.1667C6.46223 19.1667 6.76472 19.1276 7.0822 19.0493C7.99967 18.8234 9.00046 18.2659 10.0004 17.4543C11.0004 18.2651 12.0012 18.8226 12.9186 19.0493C13.2361 19.1276 13.5386 19.1667 13.8253 19.1667C14.3419 19.1667 14.8069 19.0401 15.2144 18.7884C16.5343 17.9726 16.9376 15.9869 16.4901 13.512C18.6492 12.6778 19.9992 11.4246 19.9992 9.99963ZM13.1178 1.7583C13.3669 1.69664 13.6011 1.66664 13.8203 1.66664C14.1836 1.66664 14.5036 1.75164 14.7769 1.91996C15.7668 2.5316 16.0435 4.15737 15.6885 6.20895C14.8394 5.94396 13.8919 5.73814 12.8728 5.60231C12.1637 4.64818 11.4045 3.79988 10.6346 3.09241C11.4937 2.41411 12.3428 1.94996 13.1186 1.7583H13.1178ZM13.3961 12.1054C13.0853 12.6304 12.757 13.1337 12.4161 13.6111C11.6428 13.7011 10.832 13.7495 9.99958 13.7495C9.16712 13.7495 8.35632 13.7011 7.58302 13.6111C7.2422 13.1337 6.91471 12.6304 6.60306 12.1054C6.18808 11.4054 5.82392 10.6979 5.51227 9.99879C5.82476 9.29965 6.18891 8.59218 6.60306 7.89221C6.91388 7.36723 7.2422 6.86392 7.58218 6.38728C8.35548 6.29728 9.16628 6.24895 9.99875 6.24895C10.8312 6.24895 11.642 6.29728 12.4153 6.38728C12.7553 6.86392 13.0836 7.36723 13.3944 7.89221C13.8094 8.59218 14.1736 9.29965 14.4852 9.99879C14.1727 10.6979 13.8086 11.4046 13.3944 12.1045L13.3961 12.1054ZM14.9185 11.0462C15.1677 11.7071 15.3677 12.3529 15.5169 12.9695C14.9094 13.1603 14.2452 13.322 13.5386 13.447C13.7361 13.1487 13.9278 12.8428 14.1127 12.5304C14.4061 12.0354 14.6744 11.5396 14.9185 11.0462ZM9.99958 16.3694C9.41377 15.8377 8.82963 15.2144 8.26882 14.5169C8.82963 14.5603 9.40794 14.5828 9.99958 14.5828C10.5912 14.5828 11.1695 14.5603 11.7303 14.5169C11.1695 15.2144 10.5854 15.8385 9.99958 16.3694ZM6.46056 13.447C5.75309 13.322 5.08895 13.1603 4.48231 12.9695C4.63147 12.3529 4.83147 11.7071 5.08062 11.0462C5.32478 11.5387 5.5931 12.0345 5.88642 12.5304C6.07225 12.8437 6.26391 13.1495 6.46056 13.447ZM5.08062 8.95217C4.83147 8.29136 4.63147 7.64556 4.48231 7.02892C5.08895 6.83809 5.75309 6.67643 6.46056 6.55144C6.26391 6.84892 6.07225 7.15474 5.88642 7.46806C5.5931 7.96388 5.32478 8.45969 5.08062 8.95217ZM9.99958 3.62906C10.5854 4.1607 11.1695 4.78401 11.7303 5.48148C11.1695 5.43815 10.5912 5.41565 9.99958 5.41565C9.40794 5.41565 8.82963 5.43815 8.26882 5.48148C8.82963 4.78401 9.41377 4.15987 9.99958 3.62906ZM14.1127 7.46806C13.9278 7.15474 13.7353 6.84892 13.5386 6.55144C14.2461 6.67643 14.9094 6.83809 15.5169 7.02892C15.3677 7.64556 15.1677 8.29136 14.9185 8.95217C14.6744 8.45969 14.4061 7.96388 14.1127 7.46806ZM5.22312 1.91913C5.49644 1.7508 5.81642 1.66581 6.17974 1.66581C6.39807 1.66581 6.63306 1.69664 6.88221 1.75747C7.65801 1.94829 8.50715 2.41327 9.36628 3.09158C8.59631 3.79822 7.83717 4.64735 7.12804 5.60148C6.10891 5.73647 5.16145 5.94313 4.31232 6.20812C3.9565 4.15654 4.23232 2.5316 5.22312 1.91913ZM0.833299 9.99963C0.833299 8.95634 1.93825 7.99721 3.68568 7.30974C3.8965 8.16887 4.20066 9.07383 4.59731 9.99963C4.20066 10.9263 3.8965 11.8312 3.68568 12.6895C1.93909 12.002 0.833299 11.0421 0.833299 9.99963ZM6.88221 18.2409C6.21974 18.4051 5.6606 18.3509 5.22312 18.0801C4.23316 17.4685 3.95567 15.8435 4.31149 13.792C5.16062 14.057 6.10808 14.2628 7.1272 14.3986C7.83634 15.3527 8.59548 16.201 9.36544 16.9085C8.50631 17.5868 7.65801 18.051 6.88221 18.2418V18.2409ZM14.7769 18.0801C14.3394 18.3518 13.7819 18.4068 13.1178 18.2409C12.342 18.0501 11.4929 17.586 10.6346 16.9077C11.4045 16.201 12.1637 15.3519 12.8728 14.3978C13.8919 14.2628 14.8394 14.0561 15.6885 13.7911C16.0443 15.8427 15.7677 17.4676 14.7769 18.0793V18.0801ZM16.3143 12.6903C16.1035 11.8312 15.7993 10.9263 15.4027 10.0005C15.7993 9.07466 16.1035 8.1697 16.3143 7.31057C18.0617 7.99804 19.1667 8.958 19.1667 10.0005C19.1667 11.0429 18.0617 12.0029 16.3143 12.6903Z" fill="#61677A"/>
</g>
<defs>
<clipPath id="clip0_59_65">
<rect width="20" height="20" fill="white"/>
</clipPath>
</defs>
</svg>
